<svg xmlns="http://www.w3.org/2000/svg" width="1024" height="1024"><path d="M355.799 257.035a715.91 715.91 0 00-8.248.026l-.012-.01c-168.964.5-312.807 129.022-334.617 255.976l-.152.002c3.25 246.92 183.47 487.28 486.43 497.34 247.05 8.21 514.12-197.289 512.49-508.129l-.14.06c-45.9 290.79-330.77 439.97-510.42 439.32-239.16-.53-423.44-187.69-423.44-429.04l-.196.002c42.635-126.34 179.43-217.34 317.096-192.932 68.74 16.72 69.28 67.61 70.7 123.72-41 .78-83.32-4.2-121.16-.85-106.79 16.39-177.4 52.34-179.3 163.06 2.7 85.48 66.27 150.36 143.59 151.43 87.05-.45 147.85-38.59 197.92-97.04l18-320.3c-44.785-66.263-84.729-82.4-168.541-82.635zm40.4 246.777c21.857-.004 43.568.99 64.09.319.51 38.156 4.082 76.102 16.211 109.978-57.45 45.67-149.06 97.84-211.61 46.15-28.66-31.41-31.52-84.38-3.9-113.57 38.342-38.025 87.125-42.866 135.21-42.876z" fill="#ed2939"/><path d="M506.44 14.58C278.3 14.7 12.92 199.53 12.89 513.2c65-293.99 250.04-416.35 487.3-432.86 256.71 8.49 441.19 236.44 450.17 423.81l.052-.002C914.885 632.537 807.864 687.273 706.54 692.381c-97.97-3.68-163.609-64.87-159.709-190.9l322.96 1.699c.36-65.32-12.19-141.55-48.76-188.6-31.54-38.45-77.28-57.9-137.71-57.9-64.1 2.75-116.33 32.4-159 80.07l-18.88 322.32c55.16 56.95 133.73 87.97 202.65 88.43 157.83.01 276.71-114.81 303.46-245.19l-15.407.422 15.546-.482C1008.28 230.43 781.8 14.44 506.44 14.58zM685.18 317c78.12 3.66 110.34 54.89 118.46 123.55H552.31c11.7-73 64.43-122.51 132.87-123.55z" fill="#009e60"/></svg>